PathFileType	4	(X/Y/Z)	D:\Long Term Storage\D'Arcy Smith\Coord20.trc
DataRate	CameraRate	NumFrames	NumMarkers	Units	OrigDataRate	OrigDataStartFrame	OrigNumFrames
120.00	120.00	      50	4	mm	120.00	2420	      4839
Frame#	Time	M1			M2			M3			M4			
		X1	Y1	Z1	X2	Y2	Z2	X3	Y3	Z3	X4	Y4	Z4	

2420	20.158	602.03082	471.70386	82.93163	929.82074	348.48508	379.53058							
2421	20.167	599.17590	486.09903	66.94698	932.38745	345.55136	366.84515							
2422	20.175	596.39587	500.62003	51.92124	935.13031	343.17557	353.60342							
2423	20.183	593.10999	515.07654	38.13681	938.22070	341.09793	339.85480							
2424	20.192	590.64124	528.49030	26.28519	941.26398	339.54672	326.39554							
2425	20.200	587.69720	541.91949	15.48450	944.31482	338.97037	311.24313							
2426	20.208	585.30133	554.32135	6.29248	947.87036	338.76532	296.64606							
2427	20.217	582.70093	565.77026	-1.74243	951.69495	339.76709	280.82718							
2428	20.225	581.03735	575.92035	-8.33720	955.25031	340.14139	266.69119							
2429	20.233	578.78845	585.03851	-13.89094	959.10602	341.88962	250.74785							
2430	20.242	576.73920	592.70557	-18.38301	962.67108	344.13620	235.26329							
2431	20.250	575.00867	598.82672	-22.03553	966.75049	347.92084	218.97740							
2432	20.258	572.98071	603.64307	-24.86560	970.66577	351.68051	202.99182							
2433	20.267	571.70917	606.46362	-27.00670	974.51691	356.08475	187.26532							
2434	20.275	570.84009	607.85138	-28.46564	978.17004	360.25806	173.27934							
2435	20.283	571.00037	607.33765	-29.13210	981.65582	365.99069	157.70926							
2436	20.292	570.78546	605.49762	-29.27213	985.59589	372.95367	142.03368							
2437	20.300	570.92560	602.05768	-28.79529	988.78912	378.95682	128.31450							
2438	20.308	571.39819	597.29358	-27.59118	992.10345	386.39948	113.96741							
2439	20.317	572.15222	591.11194	-25.72849	995.49500	395.21106	98.03629							
2440	20.325	573.15857	583.67548	-23.24924	998.70135	403.02756	84.13554							
2441	20.333	574.52289	574.97076	-20.04091	1001.58142	411.13367	71.34860							
2442	20.342	575.93518	565.20453	-16.26437	1004.13684	419.29114	59.10264							
2443	20.350	577.73627	554.30249	-11.56814	1006.37848	427.57324	47.49189							
2444	20.358	579.45160	542.24579	-5.86592	1008.59399	435.85971	36.26566							
2445	20.367	581.37891	529.04999	0.93591	1010.32672	443.94321	25.87603							
2446	20.375	583.50983	514.90570	8.80071	1012.27557	452.08496	15.73661							
2447	20.383	585.70697	499.68729	18.16446	1013.63220	459.69583	6.64563							
2448	20.392	588.02423	483.76718	29.21805	1014.77203	467.17645	-1.76865							
2449	20.400	590.51392	467.04053	42.00261	1015.51886	474.02322	-9.11400							
2450	20.408	593.12610	449.79211	56.90834	1016.27936	480.21091	-15.58953							
2451	20.417	595.63281	432.73270	73.58913	1016.84155	485.69980	-21.12552							
2452	20.425	597.82831	415.30963	93.41182	1017.12872	490.56912	-25.83341							
2453	20.433	599.49927	397.53714	115.79237	1017.06366	494.67581	-29.65369							
2454	20.442	600.35406	381.34381	140.29156	1016.87628	498.18878	-32.97419							
2455	20.450	600.89960	366.33041	167.12312	1016.41333	500.89417	-35.46407							
2456	20.458	601.23950	353.04510	195.82869	1015.65027	502.71909	-37.17979							
2457	20.467	601.58008	342.26193	225.91136	1014.87720	503.59573	-38.01053							
2458	20.475	601.76929	334.38449	257.10278	1013.90662	503.51309	-38.06707							
2459	20.483	601.21246	328.26212	290.51572	1012.68451	502.49362	-37.40014							
2460	20.492	600.24109	325.37817	322.97546	1011.48834	500.57965	-36.00371							
2461	20.500	598.88062	324.37735	356.64059	1010.11115	497.81296	-33.93879							
2462	20.508	598.31775	327.39096	387.19278	1008.57532	494.19180	-31.23688							
2463	20.517	596.52740	332.42743	418.41547	1007.00677	489.90930	-27.85246							
2464	20.525	593.96362	339.57059	449.20126	1005.43121	484.99509	-23.97215							
2465	20.533	590.45386	348.47800	480.28006	1003.62024	479.38428	-19.34916							
2466	20.542	587.29474	359.84549	506.67984	1001.79938	473.26208	-14.19329							
2467	20.550	583.42151	372.13480	533.20776	999.91833	466.78445	-8.35115							
2468	20.558	579.64813	385.92914	556.78131	998.11060	459.74118	-2.05785							
2469	20.567	575.53406	400.30597	578.98560	996.19440	452.02618	5.74464							
